<svg width="464" height="371" viewBox="0 0 464 371" fill="none" xmlns="http://www.w3.org/2000/svg">
<rect width="464" height="371" fill="#F1F1F1"/>
<g clip-path="url(#clip0)">
<path d="M100.642 61H33.358C29.8528 61 27 64.3464 27 68.4604V118.824C27 122.937 29.852 126.286 33.3576 126.286H58.2584V137.27H45.8076V141H87.486V137.27H75.742V126.286H100.642C104.148 126.286 107 122.938 107 118.825V68.4604C107.001 64.3464 104.148 61 100.642 61ZM102.761 118.825C102.761 120.197 101.811 121.312 100.642 121.312H33.3572C32.1876 121.31 31.24 120.198 31.2384 118.825V68.4604C31.24 67.0876 32.1876 65.9752 33.3572 65.9736H100.642C101.813 65.9748 102.761 67.0876 102.762 68.4604V118.825H102.761V118.825Z" fill="#21209C"/>
<path d="M46.3281 100.979H52.4121V97.042H47.4082V96.0029H52.4121V92.8857H46.875V91.8467H59.0703V92.8857H53.5879V96.0029H58.5918V97.042H53.5879V100.979H59.6719V101.991H46.3281V100.979ZM51.8926 89.8232L52.9043 89.3037C53.4603 90.1331 53.8613 90.7757 54.1074 91.2314L53.0273 91.8057C52.5352 90.8942 52.1569 90.2334 51.8926 89.8232ZM67.3828 91.2998V95.8252C67.3828 99.0882 66.5671 101.453 64.9355 102.921C64.6803 102.611 64.4115 102.301 64.1289 101.991C65.569 100.724 66.2891 98.751 66.2891 96.0713V90.2607H71.375V100.542C71.375 100.998 71.5345 101.226 71.8535 101.226H72.168C72.4596 101.226 72.6465 100.97 72.7285 100.46C72.8197 99.7581 72.8835 99.0016 72.9199 98.1904C73.2389 98.3454 73.5853 98.4912 73.959 98.6279C73.877 99.5303 73.7949 100.269 73.7129 100.843C73.5671 101.809 73.1022 102.292 72.3184 102.292H71.5938C70.7188 102.292 70.2812 101.772 70.2812 100.733V91.2998H67.3828ZM60.1777 97.9307C61.1986 96.4085 61.9255 94.7679 62.3584 93.0088H60.3145V92.0791H62.4473V89.3857H63.4316V92.0791H65.3457V93.0088H63.4316V95.2783L63.9785 94.7314C64.6803 95.3695 65.2318 95.889 65.6328 96.29L64.8945 97.042C64.334 96.4222 63.8464 95.9072 63.4316 95.4971V102.716H62.4473V95.3877C61.9596 96.9326 61.3535 98.1813 60.6289 99.1338C60.4831 98.7236 60.3327 98.3226 60.1777 97.9307ZM83.6865 101H82.1758L81.0957 98.1016H76.6865L75.668 101H74.1572L78.1904 90.4111H79.6533L83.6865 101ZM80.6719 96.9053L79.0723 92.5029C79.0221 92.3617 78.9674 92.1156 78.9082 91.7646H78.874C78.8239 92.0837 78.7669 92.3298 78.7031 92.5029L77.1172 96.9053H80.6719Z" fill="#FDB827"/>
</g>
<g clip-path="url(#clip1)">
<path d="M371.642 61H304.358C300.853 61 298 64.3464 298 68.4604V118.824C298 122.937 300.852 126.286 304.358 126.286H329.258V137.27H316.808V141H358.486V137.27H346.742V126.286H371.642C375.148 126.286 378 122.938 378 118.825V68.4604C378.001 64.3464 375.148 61 371.642 61ZM373.761 118.825C373.761 120.197 372.811 121.312 371.642 121.312H304.357C303.188 121.31 302.24 120.198 302.238 118.825V68.4604C302.24 67.0876 303.188 65.9752 304.357 65.9736H371.642C372.813 65.9748 373.761 67.0876 373.762 68.4604V118.825H373.761V118.825Z" fill="#21209C"/>
<path d="M318.328 97.9795H324.412V94.042H319.408V93.0029H324.412V89.8857H318.875V88.8467H331.07V89.8857H325.588V93.0029H330.592V94.042H325.588V97.9795H331.672V98.9912H318.328V97.9795ZM323.893 86.8232L324.904 86.3037C325.46 87.1331 325.861 87.7757 326.107 88.2314L325.027 88.8057C324.535 87.8942 324.157 87.2334 323.893 86.8232ZM339.383 88.2998V92.8252C339.383 96.0882 338.567 98.4535 336.936 99.9209C336.68 99.611 336.411 99.3011 336.129 98.9912C337.569 97.7243 338.289 95.751 338.289 93.0713V87.2607H343.375V97.542C343.375 97.9977 343.535 98.2256 343.854 98.2256H344.168C344.46 98.2256 344.646 97.9704 344.729 97.46C344.82 96.7581 344.883 96.0016 344.92 95.1904C345.239 95.3454 345.585 95.4912 345.959 95.6279C345.877 96.5303 345.795 97.2686 345.713 97.8428C345.567 98.8089 345.102 99.292 344.318 99.292H343.594C342.719 99.292 342.281 98.7725 342.281 97.7334V88.2998H339.383ZM332.178 94.9307C333.199 93.4085 333.925 91.7679 334.358 90.0088H332.314V89.0791H334.447V86.3857H335.432V89.0791H337.346V90.0088H335.432V92.2783L335.979 91.7314C336.68 92.3695 337.232 92.889 337.633 93.29L336.895 94.042C336.334 93.4222 335.846 92.9072 335.432 92.4971V99.7158H334.447V92.3877C333.96 93.9326 333.354 95.1813 332.629 96.1338C332.483 95.7236 332.333 95.3226 332.178 94.9307ZM347.367 98V87.4111H350.478C351.407 87.4111 352.15 87.6344 352.706 88.0811C353.262 88.5231 353.54 89.111 353.54 89.8447C353.54 90.4281 353.374 90.943 353.041 91.3896C352.713 91.8363 352.259 92.153 351.681 92.3398V92.3672C352.401 92.4492 352.975 92.7227 353.403 93.1875C353.836 93.6478 354.053 94.2334 354.053 94.9443C354.053 95.8558 353.725 96.5941 353.068 97.1592C352.417 97.7197 351.58 98 350.56 98H347.367ZM348.734 88.6074V91.9229H349.979C350.639 91.9229 351.157 91.7633 351.53 91.4443C351.909 91.1208 352.098 90.6742 352.098 90.1045C352.098 89.1064 351.432 88.6074 350.102 88.6074H348.734ZM348.734 93.1123V96.8037H350.375C351.09 96.8037 351.642 96.6396 352.029 96.3115C352.421 95.9788 352.617 95.5186 352.617 94.9307C352.617 93.7184 351.795 93.1123 350.149 93.1123H348.734Z" fill="#FDB827"/>
</g>
<g clip-path="url(#clip2)">
<path d="M371.642 230H304.358C300.853 230 298 233.346 298 237.46V287.824C298 291.937 300.852 295.286 304.358 295.286H329.258V306.27H316.808V310H358.486V306.27H346.742V295.286H371.642C375.148 295.286 378 291.938 378 287.825V237.46C378.001 233.346 375.148 230 371.642 230ZM373.761 287.825C373.761 289.197 372.811 290.312 371.642 290.312H304.357C303.188 290.31 302.24 289.198 302.238 287.825V237.46C302.24 236.088 303.188 234.975 304.357 234.974H371.642C372.813 234.975 373.761 236.088 373.762 237.46V287.825H373.761V287.825Z" fill="#21209C"/>
<path d="M320.328 269.979H326.412V266.042H321.408V265.003H326.412V261.886H320.875V260.847H333.07V261.886H327.588V265.003H332.592V266.042H327.588V269.979H333.672V270.991H320.328V269.979ZM325.893 258.823L326.904 258.304C327.46 259.133 327.861 259.776 328.107 260.231L327.027 260.806C326.535 259.894 326.157 259.233 325.893 258.823ZM341.383 260.3V264.825C341.383 268.088 340.567 270.453 338.936 271.921C338.68 271.611 338.411 271.301 338.129 270.991C339.569 269.724 340.289 267.751 340.289 265.071V259.261H345.375V269.542C345.375 269.998 345.535 270.226 345.854 270.226H346.168C346.46 270.226 346.646 269.97 346.729 269.46C346.82 268.758 346.883 268.002 346.92 267.19C347.239 267.345 347.585 267.491 347.959 267.628C347.877 268.53 347.795 269.269 347.713 269.843C347.567 270.809 347.102 271.292 346.318 271.292H345.594C344.719 271.292 344.281 270.772 344.281 269.733V260.3H341.383ZM334.178 266.931C335.199 265.409 335.925 263.768 336.358 262.009H334.314V261.079H336.447V258.386H337.432V261.079H339.346V262.009H337.432V264.278L337.979 263.731C338.68 264.369 339.232 264.889 339.633 265.29L338.895 266.042C338.334 265.422 337.846 264.907 337.432 264.497V271.716H336.447V264.388C335.96 265.933 335.354 267.181 334.629 268.134C334.483 267.724 334.333 267.323 334.178 266.931ZM356.613 269.562C355.834 269.973 354.856 270.178 353.681 270.178C352.163 270.178 350.951 269.697 350.044 268.735C349.137 267.769 348.684 266.493 348.684 264.907C348.684 263.203 349.194 261.831 350.215 260.792C351.236 259.753 352.532 259.233 354.104 259.233C355.116 259.233 355.952 259.377 356.613 259.664V261.093C355.857 260.674 355.025 260.464 354.118 260.464C352.938 260.464 351.976 260.858 351.233 261.646C350.491 262.43 350.119 263.49 350.119 264.825C350.119 266.092 350.465 267.099 351.158 267.847C351.851 268.59 352.758 268.961 353.879 268.961C354.927 268.961 355.839 268.724 356.613 268.25V269.562Z" fill="#FDB827"/>
</g>
<rect x="245" y="186" width="180" height="162" rx="19" stroke="#23120B" stroke-width="2" stroke-dasharray="20 20"/>
<path d="M266.093 256.996C266.643 256.945 267.047 256.457 266.996 255.907L266.162 246.946C266.111 246.396 265.624 245.992 265.074 246.043C264.524 246.094 264.12 246.581 264.171 247.131L264.912 255.097L256.946 255.838C256.396 255.889 255.992 256.376 256.043 256.926C256.094 257.476 256.581 257.88 257.131 257.829L266.093 256.996ZM124.361 139.77L265.361 256.77L266.639 255.23L125.639 138.23L124.361 139.77Z" fill="#23120B"/>
<path d="M284.354 95.3536C284.549 95.1583 284.549 94.8417 284.354 94.6464L281.172 91.4645C280.976 91.2692 280.66 91.2692 280.464 91.4645C280.269 91.6597 280.269 91.9763 280.464 92.1716L283.293 95L280.464 97.8284C280.269 98.0237 280.269 98.3403 280.464 98.5355C280.66 98.7308 280.976 98.7308 281.172 98.5355L284.354 95.3536ZM123 95.5H125.516V94.5H123V95.5ZM130.547 95.5H135.578V94.5H130.547V95.5ZM140.609 95.5H145.641V94.5H140.609V95.5ZM150.672 95.5H155.703V94.5H150.672V95.5ZM160.734 95.5H165.766V94.5H160.734V95.5ZM170.797 95.5H175.828V94.5H170.797V95.5ZM180.859 95.5H185.891V94.5H180.859V95.5ZM190.922 95.5H195.953V94.5H190.922V95.5ZM200.984 95.5H206.016V94.5H200.984V95.5ZM211.047 95.5H216.078V94.5H211.047V95.5ZM221.109 95.5H226.141V94.5H221.109V95.5ZM231.172 95.5H236.203V94.5H231.172V95.5ZM241.234 95.5H246.266V94.5H241.234V95.5ZM251.297 95.5H256.328V94.5H251.297V95.5ZM261.359 95.5H266.391V94.5H261.359V95.5ZM271.422 95.5H276.453V94.5H271.422V95.5ZM281.484 95.5H284V94.5H281.484V95.5ZM284.707 95.7071C285.098 95.3166 285.098 94.6834 284.707 94.2929L278.343 87.9289C277.953 87.5384 277.319 87.5384 276.929 87.9289C276.538 88.3195 276.538 88.9526 276.929 89.3431L282.586 95L276.929 100.657C276.538 101.047 276.538 101.681 276.929 102.071C277.319 102.462 277.953 102.462 278.343 102.071L284.707 95.7071ZM123 96H125.516V94H123V96ZM130.547 96H135.578V94H130.547V96ZM140.609 96H145.641V94H140.609V96ZM150.672 96H155.703V94H150.672V96ZM160.734 96H165.766V94H160.734V96ZM170.797 96H175.828V94H170.797V96ZM180.859 96H185.891V94H180.859V96ZM190.922 96H195.953V94H190.922V96ZM200.984 96H206.016V94H200.984V96ZM211.047 96H216.078V94H211.047V96ZM221.109 96H226.141V94H221.109V96ZM231.172 96H236.203V94H231.172V96ZM241.234 96H246.266V94H241.234V96ZM251.297 96H256.328V94H251.297V96ZM261.359 96H266.391V94H261.359V96ZM271.422 96H276.453V94H271.422V96ZM281.484 96H284V94H281.484V96Z" fill="#23120B"/>
<path d="M334.646 222.354C334.842 222.549 335.158 222.549 335.354 222.354L338.536 219.172C338.731 218.976 338.731 218.66 338.536 218.464C338.34 218.269 338.024 218.269 337.828 218.464L335 221.293L332.172 218.464C331.976 218.269 331.66 218.269 331.464 218.464C331.269 218.66 331.269 218.976 331.464 219.172L334.646 222.354ZM334.5 149V151.607H335.5V149H334.5ZM334.5 156.821V162.036H335.5V156.821H334.5ZM334.5 167.25V172.464H335.5V167.25H334.5ZM334.5 177.679V182.893H335.5V177.679H334.5ZM334.5 188.107V193.321H335.5V188.107H334.5ZM334.5 198.536V203.75H335.5V198.536H334.5ZM334.5 208.964V214.179H335.5V208.964H334.5ZM334.5 219.393V222H335.5V219.393H334.5ZM334.293 222.707C334.683 223.098 335.317 223.098 335.707 222.707L342.071 216.343C342.462 215.953 342.462 215.319 342.071 214.929C341.681 214.538 341.047 214.538 340.657 214.929L335 220.586L329.343 214.929C328.953 214.538 328.319 214.538 327.929 214.929C327.538 215.319 327.538 215.953 327.929 216.343L334.293 222.707ZM334 149V151.607H336V149H334ZM334 156.821V162.036H336V156.821H334ZM334 167.25V172.464H336V167.25H334ZM334 177.679V182.893H336V177.679H334ZM334 188.107V193.321H336V188.107H334ZM334 198.536V203.75H336V198.536H334ZM334 208.964V214.179H336V208.964H334ZM334 219.393V222H336V219.393H334Z" fill="black"/>
<path d="M193.219 208.312H187.781V205.625C187.781 203.438 188.219 201.562 189.094 200C189.969 198.417 191.531 196.75 193.781 195C195.99 193.292 197.562 191.698 198.5 190.219C199.458 188.719 199.938 187 199.938 185.062C199.938 183 199.198 181.302 197.719 179.969C196.26 178.635 194.271 177.969 191.75 177.969C187.771 177.969 184.271 179.479 181.25 182.5V176.125C184.75 173.938 188.542 172.844 192.625 172.844C196.688 172.844 199.917 173.917 202.312 176.062C204.729 178.188 205.938 180.979 205.938 184.438C205.938 186.854 205.375 189.052 204.25 191.031C203.125 193.01 201.24 195.094 198.594 197.281C196.469 199.052 195.042 200.458 194.312 201.5C193.583 202.542 193.219 204 193.219 205.875V208.312ZM190.469 214.844C191.573 214.844 192.521 215.229 193.312 216C194.104 216.771 194.5 217.708 194.5 218.812C194.5 219.938 194.104 220.885 193.312 221.656C192.521 222.406 191.573 222.781 190.469 222.781C189.406 222.781 188.479 222.406 187.688 221.656C186.896 220.906 186.5 219.958 186.5 218.812C186.5 217.688 186.885 216.75 187.656 216C188.448 215.229 189.385 214.844 190.469 214.844Z" fill="black"/>
<defs>
<clipPath id="clip0">
<rect width="80" height="80" fill="white" transform="translate(27 61)"/>
</clipPath>
<clipPath id="clip1">
<rect width="80" height="80" fill="white" transform="translate(298 61)"/>
</clipPath>
<clipPath id="clip2">
<rect width="80" height="80" fill="white" transform="translate(298 230)"/>
</clipPath>
</defs>
</svg>
