<svg width="464" height="371" viewBox="0 0 464 371" fill="none" xmlns="http://www.w3.org/2000/svg">
<rect width="464" height="371" fill="#F1F1F1"/>
<g clip-path="url(#clip0)">
<path d="M118.642 144H51.358C47.8528 144 45 147.346 45 151.46V201.824C45 205.937 47.852 209.286 51.3576 209.286H76.2584V220.27H63.8076V224H105.486V220.27H93.742V209.286H118.642C122.148 209.286 125 205.938 125 201.825V151.46C125.001 147.346 122.148 144 118.642 144ZM120.761 201.825C120.761 203.197 119.811 204.312 118.642 204.312H51.3572C50.1876 204.31 49.24 203.198 49.2384 201.825V151.46C49.24 150.088 50.1876 148.975 51.3572 148.974H118.642C119.813 148.975 120.761 150.088 120.762 151.46V201.825H120.761V201.825Z" fill="#21209C"/>
<path d="M64.3281 180.979H70.4121V177.042H65.4082V176.003H70.4121V172.886H64.875V171.847H77.0703V172.886H71.5879V176.003H76.5918V177.042H71.5879V180.979H77.6719V181.991H64.3281V180.979ZM69.8926 169.823L70.9043 169.304C71.4603 170.133 71.8613 170.776 72.1074 171.231L71.0273 171.806C70.5352 170.894 70.1569 170.233 69.8926 169.823ZM85.3828 171.3V175.825C85.3828 179.088 84.5671 181.453 82.9355 182.921C82.6803 182.611 82.4115 182.301 82.1289 181.991C83.569 180.724 84.2891 178.751 84.2891 176.071V170.261H89.375V180.542C89.375 180.998 89.5345 181.226 89.8535 181.226H90.168C90.4596 181.226 90.6465 180.97 90.7285 180.46C90.8197 179.758 90.8835 179.002 90.9199 178.19C91.2389 178.345 91.5853 178.491 91.959 178.628C91.877 179.53 91.7949 180.269 91.7129 180.843C91.5671 181.809 91.1022 182.292 90.3184 182.292H89.5938C88.7188 182.292 88.2812 181.772 88.2812 180.733V171.3H85.3828ZM78.1777 177.931C79.1986 176.409 79.9255 174.768 80.3584 173.009H78.3145V172.079H80.4473V169.386H81.4316V172.079H83.3457V173.009H81.4316V175.278L81.9785 174.731C82.6803 175.369 83.2318 175.889 83.6328 176.29L82.8945 177.042C82.334 176.422 81.8464 175.907 81.4316 175.497V182.716H80.4473V175.388C79.9596 176.933 79.3535 178.181 78.6289 179.134C78.4831 178.724 78.3327 178.323 78.1777 177.931ZM101.687 181H100.176L99.0957 178.102H94.6865L93.668 181H92.1572L96.1904 170.411H97.6533L101.687 181ZM98.6719 176.905L97.0723 172.503C97.0221 172.362 96.9674 172.116 96.9082 171.765H96.874C96.8239 172.084 96.7669 172.33 96.7031 172.503L95.1172 176.905H98.6719Z" fill="#FDB827"/>
</g>
<g clip-path="url(#clip1)">
<path d="M389.642 144H322.358C318.853 144 316 147.346 316 151.46V201.824C316 205.937 318.852 209.286 322.358 209.286H347.258V220.27H334.808V224H376.486V220.27H364.742V209.286H389.642C393.148 209.286 396 205.938 396 201.825V151.46C396.001 147.346 393.148 144 389.642 144ZM391.761 201.825C391.761 203.197 390.811 204.312 389.642 204.312H322.357C321.188 204.31 320.24 203.198 320.238 201.825V151.46C320.24 150.088 321.188 148.975 322.357 148.974H389.642C390.813 148.975 391.761 150.088 391.762 151.46V201.825H391.761V201.825Z" fill="#21209C"/>
<path d="M336.328 181.979H342.412V178.042H337.408V177.003H342.412V173.886H336.875V172.847H349.07V173.886H343.588V177.003H348.592V178.042H343.588V181.979H349.672V182.991H336.328V181.979ZM341.893 170.823L342.904 170.304C343.46 171.133 343.861 171.776 344.107 172.231L343.027 172.806C342.535 171.894 342.157 171.233 341.893 170.823ZM357.383 172.3V176.825C357.383 180.088 356.567 182.453 354.936 183.921C354.68 183.611 354.411 183.301 354.129 182.991C355.569 181.724 356.289 179.751 356.289 177.071V171.261H361.375V181.542C361.375 181.998 361.535 182.226 361.854 182.226H362.168C362.46 182.226 362.646 181.97 362.729 181.46C362.82 180.758 362.883 180.002 362.92 179.19C363.239 179.345 363.585 179.491 363.959 179.628C363.877 180.53 363.795 181.269 363.713 181.843C363.567 182.809 363.102 183.292 362.318 183.292H361.594C360.719 183.292 360.281 182.772 360.281 181.733V172.3H357.383ZM350.178 178.931C351.199 177.409 351.925 175.768 352.358 174.009H350.314V173.079H352.447V170.386H353.432V173.079H355.346V174.009H353.432V176.278L353.979 175.731C354.68 176.369 355.232 176.889 355.633 177.29L354.895 178.042C354.334 177.422 353.846 176.907 353.432 176.497V183.716H352.447V176.388C351.96 177.933 351.354 179.181 350.629 180.134C350.483 179.724 350.333 179.323 350.178 178.931ZM365.367 182V171.411H368.478C369.407 171.411 370.15 171.634 370.706 172.081C371.262 172.523 371.54 173.111 371.54 173.845C371.54 174.428 371.374 174.943 371.041 175.39C370.713 175.836 370.259 176.153 369.681 176.34V176.367C370.401 176.449 370.975 176.723 371.403 177.188C371.836 177.648 372.053 178.233 372.053 178.944C372.053 179.856 371.725 180.594 371.068 181.159C370.417 181.72 369.58 182 368.56 182H365.367ZM366.734 172.607V175.923H367.979C368.639 175.923 369.157 175.763 369.53 175.444C369.909 175.121 370.098 174.674 370.098 174.104C370.098 173.106 369.432 172.607 368.102 172.607H366.734ZM366.734 177.112V180.804H368.375C369.09 180.804 369.642 180.64 370.029 180.312C370.421 179.979 370.617 179.519 370.617 178.931C370.617 177.718 369.795 177.112 368.149 177.112H366.734Z" fill="#FDB827"/>
</g>
<rect x="243" y="24" width="15" height="120" fill="#21209C"/>
<rect x="243" y="204" width="15" height="120" fill="#21209C"/>
<path d="M228.497 156.954C228.497 156.222 228.266 155.647 227.803 155.231C227.34 154.81 226.71 154.599 225.913 154.599C225.351 154.599 224.782 154.742 224.208 155.029C223.634 155.316 223.098 155.727 222.6 156.26V154.59C223.045 154.127 223.549 153.772 224.111 153.526C224.68 153.28 225.345 153.157 226.106 153.157C227.337 153.157 228.327 153.488 229.077 154.15C229.827 154.807 230.202 155.697 230.202 156.822C230.202 157.824 229.971 158.691 229.508 159.424C229.051 160.156 228.266 160.906 227.152 161.674C226.016 162.459 225.254 163.021 224.867 163.361C224.486 163.701 224.22 164.026 224.067 164.337C223.915 164.647 223.839 165.025 223.839 165.471H230.606V167H222.046V166.323C222.046 165.538 222.151 164.873 222.362 164.328C222.579 163.777 222.934 163.244 223.426 162.729C223.918 162.207 224.686 161.583 225.729 160.856C226.795 160.106 227.521 159.45 227.908 158.888C228.301 158.319 228.497 157.675 228.497 156.954ZM239.062 156.954C239.062 156.222 238.83 155.647 238.367 155.231C237.904 154.81 237.274 154.599 236.478 154.599C235.915 154.599 235.347 154.742 234.772 155.029C234.198 155.316 233.662 155.727 233.164 156.26V154.59C233.609 154.127 234.113 153.772 234.676 153.526C235.244 153.28 235.909 153.157 236.671 153.157C237.901 153.157 238.892 153.488 239.642 154.15C240.392 154.807 240.767 155.697 240.767 156.822C240.767 157.824 240.535 158.691 240.072 159.424C239.615 160.156 238.83 160.906 237.717 161.674C236.58 162.459 235.818 163.021 235.432 163.361C235.051 163.701 234.784 164.026 234.632 164.337C234.479 164.647 234.403 165.025 234.403 165.471H241.171V167H232.61V166.323C232.61 165.538 232.716 164.873 232.927 164.328C233.144 163.777 233.498 163.244 233.99 162.729C234.482 162.207 235.25 161.583 236.293 160.856C237.359 160.106 238.086 159.45 238.473 158.888C238.865 158.319 239.062 157.675 239.062 156.954ZM248.492 158.694H259.865V159.837H254.592L254.108 161.753H259.039V167.589C259.039 168.597 258.594 169.101 257.703 169.101C257.398 169.101 256.971 169.095 256.42 169.083C256.338 168.603 256.221 168.169 256.068 167.782C256.467 167.817 256.871 167.835 257.281 167.835C257.633 167.835 257.809 167.653 257.809 167.29V162.843H255.998V168.362H254.82V162.843H253.08V168.257H251.902V162.843H250.145V169.259H248.914V161.753H252.834L253.238 159.837H248.492V158.694ZM257.334 157.552V157.007H249.389V153.052H250.619V155.917H253.344V151.944H254.609V155.917H257.334V153.052H258.564V157.552H257.334ZM248 158.062C247.777 159.79 247.361 162.222 246.752 165.356C247.355 165.228 247.912 165.099 248.422 164.97C248.41 165.427 248.416 165.843 248.439 166.218C247.115 166.546 245.182 166.968 242.639 167.483L242.375 166.165C243.553 165.972 244.625 165.781 245.592 165.594C246.166 162.072 246.553 159.485 246.752 157.833L248 158.062ZM242.797 158.308L243.992 158.044C244.379 159.72 244.766 161.776 245.152 164.214L243.939 164.53C243.623 162.187 243.242 160.112 242.797 158.308ZM242.568 155.548H248.598V156.69H242.568V155.548ZM244.01 152.683L245.082 152.05C245.773 152.905 246.365 153.784 246.857 154.687L245.697 155.39C245.275 154.569 244.713 153.667 244.01 152.683ZM262.133 153.825H276.09V168.626H274.578V166.921H263.645V168.626H262.133V153.825ZM274.578 165.603V155.144H263.645V165.603H274.578Z" fill="black"/>
<path d="M323.861 260.203C323.861 259.418 324.096 258.694 324.564 258.032C325.033 257.37 325.637 256.898 326.375 256.617C325.783 256.283 325.314 255.855 324.969 255.334C324.623 254.812 324.45 254.247 324.45 253.638C324.45 252.993 324.614 252.404 324.942 251.871C325.276 251.338 325.736 250.919 326.322 250.614C326.914 250.31 327.564 250.157 328.273 250.157C328.988 250.157 329.642 250.31 330.233 250.614C330.825 250.913 331.285 251.329 331.613 251.862C331.941 252.396 332.105 252.987 332.105 253.638C332.105 254.235 331.936 254.798 331.596 255.325C331.262 255.847 330.796 256.277 330.198 256.617C330.937 256.904 331.537 257.379 332 258.041C332.463 258.703 332.694 259.424 332.694 260.203C332.694 260.977 332.51 261.671 332.141 262.286C331.771 262.896 331.247 263.37 330.567 263.71C329.888 264.05 329.123 264.22 328.273 264.22C327.43 264.22 326.671 264.05 325.997 263.71C325.323 263.37 324.799 262.893 324.424 262.277C324.049 261.662 323.861 260.971 323.861 260.203ZM325.549 260.124C325.549 260.933 325.798 261.58 326.296 262.066C326.794 262.553 327.456 262.796 328.282 262.796C329.091 262.796 329.75 262.55 330.26 262.058C330.775 261.56 331.033 260.915 331.033 260.124C331.033 259.374 330.772 258.744 330.251 258.234C329.735 257.719 329.079 257.461 328.282 257.461C327.491 257.461 326.838 257.713 326.322 258.217C325.807 258.715 325.549 259.351 325.549 260.124ZM326.041 253.778C326.041 254.388 326.258 254.912 326.691 255.352C327.125 255.785 327.655 256.002 328.282 256.002C328.897 256.002 329.428 255.782 329.873 255.343C330.324 254.903 330.55 254.382 330.55 253.778C330.55 253.163 330.333 252.642 329.899 252.214C329.472 251.786 328.933 251.572 328.282 251.572C327.638 251.572 327.102 251.783 326.674 252.205C326.252 252.621 326.041 253.146 326.041 253.778ZM334.355 257.461C334.355 255.059 334.754 253.242 335.551 252.012C336.348 250.775 337.502 250.157 339.014 250.157C341.896 250.157 343.338 252.483 343.338 257.136C343.338 259.433 342.931 261.19 342.116 262.409C341.308 263.622 340.171 264.229 338.706 264.229C337.323 264.229 336.251 263.651 335.489 262.497C334.733 261.343 334.355 259.664 334.355 257.461ZM336.113 257.382C336.113 260.997 337.03 262.805 338.864 262.805C340.669 262.805 341.571 260.968 341.571 257.294C341.571 253.491 340.687 251.59 338.917 251.59C337.048 251.59 336.113 253.521 336.113 257.382ZM331.174 273.386V282.377H333.213V283.801H331.174V287H329.504V283.801H323.149V282.456C324.28 281.185 325.417 279.72 326.56 278.062C327.702 276.403 328.646 274.845 329.39 273.386H331.174ZM325.083 282.377H329.504V275.891C328.895 276.986 328.241 278.05 327.544 279.081C326.847 280.106 326.026 281.205 325.083 282.377ZM341.738 273.386V282.377H343.777V283.801H341.738V287H340.068V283.801H333.714V282.456C334.845 281.185 335.981 279.72 337.124 278.062C338.267 276.403 339.21 274.845 339.954 273.386H341.738ZM335.647 282.377H340.068V275.891C339.459 276.986 338.806 278.05 338.108 279.081C337.411 280.106 336.591 281.205 335.647 282.377ZM345.386 284.724C346.317 285.444 347.369 285.805 348.541 285.805C349.479 285.805 350.22 285.576 350.765 285.119C351.315 284.656 351.591 284.038 351.591 283.265C351.591 281.542 350.357 280.681 347.891 280.681H346.757V279.257H347.838C350.023 279.257 351.116 278.448 351.116 276.831C351.116 275.337 350.281 274.59 348.611 274.59C347.656 274.59 346.757 274.912 345.913 275.557V273.931C346.804 273.415 347.844 273.157 349.033 273.157C350.193 273.157 351.125 273.462 351.828 274.071C352.531 274.675 352.883 275.46 352.883 276.427C352.883 278.208 351.975 279.354 350.158 279.863V279.898C351.143 280.004 351.919 280.353 352.487 280.944C353.062 281.53 353.349 282.263 353.349 283.142C353.349 284.366 352.906 285.354 352.021 286.104C351.143 286.854 349.971 287.229 348.506 287.229C347.217 287.229 346.177 286.988 345.386 286.508V284.724ZM323.861 306.203C323.861 305.418 324.096 304.694 324.564 304.032C325.033 303.37 325.637 302.898 326.375 302.617C325.783 302.283 325.314 301.855 324.969 301.334C324.623 300.812 324.45 300.247 324.45 299.638C324.45 298.993 324.614 298.404 324.942 297.871C325.276 297.338 325.736 296.919 326.322 296.614C326.914 296.31 327.564 296.157 328.273 296.157C328.988 296.157 329.642 296.31 330.233 296.614C330.825 296.913 331.285 297.329 331.613 297.862C331.941 298.396 332.105 298.987 332.105 299.638C332.105 300.235 331.936 300.798 331.596 301.325C331.262 301.847 330.796 302.277 330.198 302.617C330.937 302.904 331.537 303.379 332 304.041C332.463 304.703 332.694 305.424 332.694 306.203C332.694 306.977 332.51 307.671 332.141 308.286C331.771 308.896 331.247 309.37 330.567 309.71C329.888 310.05 329.123 310.22 328.273 310.22C327.43 310.22 326.671 310.05 325.997 309.71C325.323 309.37 324.799 308.893 324.424 308.277C324.049 307.662 323.861 306.971 323.861 306.203ZM325.549 306.124C325.549 306.933 325.798 307.58 326.296 308.066C326.794 308.553 327.456 308.796 328.282 308.796C329.091 308.796 329.75 308.55 330.26 308.058C330.775 307.56 331.033 306.915 331.033 306.124C331.033 305.374 330.772 304.744 330.251 304.234C329.735 303.719 329.079 303.461 328.282 303.461C327.491 303.461 326.838 303.713 326.322 304.217C325.807 304.715 325.549 305.351 325.549 306.124ZM326.041 299.778C326.041 300.388 326.258 300.912 326.691 301.352C327.125 301.785 327.655 302.002 328.282 302.002C328.897 302.002 329.428 301.782 329.873 301.343C330.324 300.903 330.55 300.382 330.55 299.778C330.55 299.163 330.333 298.642 329.899 298.214C329.472 297.786 328.933 297.572 328.282 297.572C327.638 297.572 327.102 297.783 326.674 298.205C326.252 298.621 326.041 299.146 326.041 299.778ZM334.355 303.461C334.355 301.059 334.754 299.242 335.551 298.012C336.348 296.775 337.502 296.157 339.014 296.157C341.896 296.157 343.338 298.483 343.338 303.136C343.338 305.433 342.931 307.19 342.116 308.409C341.308 309.622 340.171 310.229 338.706 310.229C337.323 310.229 336.251 309.651 335.489 308.497C334.733 307.343 334.355 305.664 334.355 303.461ZM336.113 303.382C336.113 306.997 337.03 308.805 338.864 308.805C340.669 308.805 341.571 306.968 341.571 303.294C341.571 299.491 340.687 297.59 338.917 297.59C337.048 297.59 336.113 299.521 336.113 303.382ZM344.99 306.203C344.99 305.418 345.225 304.694 345.693 304.032C346.162 303.37 346.766 302.898 347.504 302.617C346.912 302.283 346.443 301.855 346.098 301.334C345.752 300.812 345.579 300.247 345.579 299.638C345.579 298.993 345.743 298.404 346.071 297.871C346.405 297.338 346.865 296.919 347.451 296.614C348.043 296.31 348.693 296.157 349.402 296.157C350.117 296.157 350.771 296.31 351.362 296.614C351.954 296.913 352.414 297.329 352.742 297.862C353.07 298.396 353.234 298.987 353.234 299.638C353.234 300.235 353.064 300.798 352.725 301.325C352.391 301.847 351.925 302.277 351.327 302.617C352.065 302.904 352.666 303.379 353.129 304.041C353.592 304.703 353.823 305.424 353.823 306.203C353.823 306.977 353.639 307.671 353.27 308.286C352.9 308.896 352.376 309.37 351.696 309.71C351.017 310.05 350.252 310.22 349.402 310.22C348.559 310.22 347.8 310.05 347.126 309.71C346.452 309.37 345.928 308.893 345.553 308.277C345.178 307.662 344.99 306.971 344.99 306.203ZM346.678 306.124C346.678 306.933 346.927 307.58 347.425 308.066C347.923 308.553 348.585 308.796 349.411 308.796C350.22 308.796 350.879 308.55 351.389 308.058C351.904 307.56 352.162 306.915 352.162 306.124C352.162 305.374 351.901 304.744 351.38 304.234C350.864 303.719 350.208 303.461 349.411 303.461C348.62 303.461 347.967 303.713 347.451 304.217C346.936 304.715 346.678 305.351 346.678 306.124ZM347.17 299.778C347.17 300.388 347.387 300.912 347.82 301.352C348.254 301.785 348.784 302.002 349.411 302.002C350.026 302.002 350.557 301.782 351.002 301.343C351.453 300.903 351.679 300.382 351.679 299.778C351.679 299.163 351.462 298.642 351.028 298.214C350.601 297.786 350.062 297.572 349.411 297.572C348.767 297.572 348.23 297.783 347.803 298.205C347.381 298.621 347.17 299.146 347.17 299.778ZM359.703 310V298.354C359.434 298.624 358.977 298.926 358.332 299.26C357.693 299.594 357.102 299.828 356.557 299.963V298.275C357.277 298.076 358.048 297.76 358.868 297.326C359.688 296.887 360.318 296.474 360.758 296.087H361.408V310H359.703ZM324.046 332.095C324.046 331.778 324.154 331.512 324.371 331.295C324.588 331.078 324.857 330.97 325.18 330.97C325.508 330.97 325.78 331.081 325.997 331.304C326.214 331.521 326.322 331.784 326.322 332.095C326.322 332.399 326.214 332.663 325.997 332.886C325.78 333.103 325.505 333.211 325.171 333.211C324.849 333.211 324.579 333.103 324.362 332.886C324.151 332.663 324.046 332.399 324.046 332.095ZM328.388 332.095C328.388 331.778 328.496 331.512 328.713 331.295C328.93 331.078 329.199 330.97 329.521 330.97C329.85 330.97 330.122 331.081 330.339 331.304C330.556 331.521 330.664 331.784 330.664 332.095C330.664 332.399 330.556 332.663 330.339 332.886C330.122 333.103 329.847 333.211 329.513 333.211C329.19 333.211 328.921 333.103 328.704 332.886C328.493 332.663 328.388 332.399 328.388 332.095ZM332.729 332.095C332.729 331.778 332.838 331.512 333.055 331.295C333.271 331.078 333.541 330.97 333.863 330.97C334.191 330.97 334.464 331.081 334.681 331.304C334.897 331.521 335.006 331.784 335.006 332.095C335.006 332.399 334.897 332.663 334.681 332.886C334.464 333.103 334.188 333.211 333.854 333.211C333.532 333.211 333.263 333.103 333.046 332.886C332.835 332.663 332.729 332.399 332.729 332.095Z" fill="#FDB827"/>
<path d="M299.395 272.919C299.902 272.701 300.137 272.112 299.919 271.605L296.364 263.337C296.146 262.829 295.558 262.595 295.05 262.813C294.543 263.031 294.309 263.619 294.527 264.127L297.686 271.476L290.337 274.636C289.829 274.854 289.595 275.442 289.813 275.95C290.031 276.457 290.619 276.691 291.127 276.473L299.395 272.919ZM145.63 211.929L298.63 272.929L299.37 271.071L146.37 210.071L145.63 211.929Z" fill="#23120B"/>
<line x1="232.847" y1="224.532" x2="210.847" y2="259.532" stroke="black" stroke-width="2"/>
<path d="M305.354 184.354C305.549 184.158 305.549 183.842 305.354 183.646L302.172 180.464C301.976 180.269 301.66 180.269 301.464 180.464C301.269 180.66 301.269 180.976 301.464 181.172L304.293 184L301.464 186.828C301.269 187.024 301.269 187.34 301.464 187.536C301.66 187.731 301.976 187.731 302.172 187.536L305.354 184.354ZM133 184.5H135.529V183.5H133V184.5ZM140.588 184.5H145.647V183.5H140.588V184.5ZM150.706 184.5H155.765V183.5H150.706V184.5ZM160.824 184.5H165.882V183.5H160.824V184.5ZM170.941 184.5H176V183.5H170.941V184.5ZM181.059 184.5H186.118V183.5H181.059V184.5ZM191.176 184.5H196.235V183.5H191.176V184.5ZM201.294 184.5H206.353V183.5H201.294V184.5ZM211.412 184.5H216.471V183.5H211.412V184.5ZM221.529 184.5H226.588V183.5H221.529V184.5ZM231.647 184.5H236.706V183.5H231.647V184.5ZM241.765 184.5H246.824V183.5H241.765V184.5ZM251.882 184.5H256.941V183.5H251.882V184.5ZM262 184.5H267.059V183.5H262V184.5ZM272.118 184.5H277.176V183.5H272.118V184.5ZM282.235 184.5H287.294V183.5H282.235V184.5ZM292.353 184.5H297.412V183.5H292.353V184.5ZM302.471 184.5H305V183.5H302.471V184.5ZM305.707 184.707C306.098 184.317 306.098 183.683 305.707 183.293L299.343 176.929C298.953 176.538 298.319 176.538 297.929 176.929C297.538 177.319 297.538 177.953 297.929 178.343L303.586 184L297.929 189.657C297.538 190.047 297.538 190.681 297.929 191.071C298.319 191.462 298.953 191.462 299.343 191.071L305.707 184.707ZM133 185H135.529V183H133V185ZM140.588 185H145.647V183H140.588V185ZM150.706 185H155.765V183H150.706V185ZM160.824 185H165.882V183H160.824V185ZM170.941 185H176V183H170.941V185ZM181.059 185H186.118V183H181.059V185ZM191.176 185H196.235V183H191.176V185ZM201.294 185H206.353V183H201.294V185ZM211.412 185H216.471V183H211.412V185ZM221.529 185H226.588V183H221.529V185ZM231.647 185H236.706V183H231.647V185ZM241.765 185H246.824V183H241.765V185ZM251.882 185H256.941V183H251.882V185ZM262 185H267.059V183H262V185ZM272.118 185H277.176V183H272.118V185ZM282.235 185H287.294V183H282.235V185ZM292.353 185H297.412V183H292.353V185ZM302.471 185H305V183H302.471V185Z" fill="black"/>
<g clip-path="url(#clip2)">
<path d="M396.447 275.616C391.071 275.625 385.989 273.204 382.664 269.051H384.937C385.628 269.051 386.266 268.689 386.612 268.101C386.782 267.813 386.871 267.485 386.871 267.151C386.871 266.817 386.782 266.489 386.612 266.201C386.266 265.613 385.628 265.25 384.937 265.25H379.135C378.067 265.25 377.201 266.101 377.201 267.15V274.064C377.201 275.112 378.067 275.963 379.136 275.963C380.204 275.963 381.069 275.112 381.069 274.064V273.024C385.1 277.119 390.65 279.427 396.447 279.418C408.24 279.417 417.812 270.067 417.812 258.514C417.812 246.96 408.24 237.612 396.447 237.612C388.147 237.612 380.952 242.244 377.414 249.009C377.259 249.305 377.186 249.638 377.202 249.972C377.219 250.306 377.325 250.629 377.509 250.908C377.696 251.19 377.953 251.418 378.255 251.57C378.557 251.722 378.894 251.793 379.232 251.775C379.569 251.76 379.896 251.656 380.181 251.475C380.466 251.294 380.699 251.042 380.856 250.743C383.861 245.006 389.88 241.403 396.447 241.412C406.12 241.412 413.945 249.077 413.945 258.514C413.945 267.95 406.121 275.616 396.447 275.616V275.616Z" fill="#23120B"/>
</g>
<defs>
<clipPath id="clip0">
<rect width="80" height="80" fill="white" transform="translate(45 144)"/>
</clipPath>
<clipPath id="clip1">
<rect width="80" height="80" fill="white" transform="translate(316 144)"/>
</clipPath>
<clipPath id="clip2">
<rect width="43" height="43" fill="white" transform="translate(419 280) rotate(180)"/>
</clipPath>
</defs>
</svg>
