<svg version="1.1" xmlns="http://www.w3.org/2000/svg" viewBox="0 0 925.62109375 857.046875" width="1851.2421875" height="1714.09375">
  <!-- svg-source:excalidraw -->
  
  <defs>
    <style>
      @font-face {
        font-family: "Virgil";
        src: url("https://excalidraw.com/Virgil.woff2");
      }
      @font-face {
        font-family: "Cascadia";
        src: url("https://excalidraw.com/Cascadia.woff2");
      }
    </style>
  </defs>
  <rect x="0" y="0" width="925.62109375" height="857.046875" fill="#ffffff"></rect><g stroke-linecap="round" transform="translate(12.984375 193.9375) rotate(0 130.625 152.248046875)"><path d="M-0.16 0.94 C73.03 1.09, 144.26 0.55, 259.68 -0.71 M0.29 -0.76 C88.69 -1.43, 176.09 -1.77, 260.8 -0.22 M260.53 1.2 C263.66 104.94, 262.08 208.37, 262.03 305.57 M260.78 0.22 C259.31 112.37, 259.28 224.89, 260.72 303.97 M260.79 305.37 C199.42 304.58, 141.2 305.57, -1.04 304.46 M261.92 305.03 C179.71 303.24, 97.73 303.26, -0.14 303.87 M-0.13 305.8 C-1.36 213.51, -1.55 119.92, 0.15 -1.34 M0.37 304.08 C-1.08 195.16, -0.67 85.06, -0.13 0.65" stroke="#000000" stroke-width="1" fill="none"></path></g><g transform="translate(77.66015625 233.7109375) rotate(0 62.5 27)"><text x="62.5" y="19" font-family="Virgil, Segoe UI Emoji" font-size="20px" fill="#000000" text-anchor="middle" style="white-space: pre;" direction="ltr">Public server</text><text x="62.5" y="46" font-family="Virgil, Segoe UI Emoji" font-size="20px" fill="#000000" text-anchor="middle" style="white-space: pre;" direction="ltr">公网服务器</text></g><g stroke-linecap="round" transform="translate(47.2734375 331.03125) rotate(0 97.5 82.31640625)"><path d="M-1.67 -0.17 C66.68 -2.18, 134.57 -2.2, 196.16 -0.47 M-0.41 0.46 C55.06 -0.08, 111.02 -0.58, 195.2 -0.45 M194.48 -0.42 C196.68 38.7, 195.17 80.79, 195.78 165.1 M195.54 -0.71 C196.45 35.47, 195.13 72.62, 194.4 165.52 M196.38 164.38 C135.42 161.83, 76.7 163.34, -1.98 164.26 M194.64 163.81 C134.61 162.39, 74.03 162.1, -0.57 165.6 M1.28 164.36 C-2.77 126.72, -3.22 90.94, -1.56 -1.78 M-0.03 164.31 C-1.73 117.64, -0.62 69.24, -0.09 0.77" stroke="#000000" stroke-width="1" fill="none"></path></g><g stroke-linecap="round" transform="translate(425.45703125 186.146484375) rotate(0 130.625 152.248046875)"><path d="M-0.04 1.1 C91.81 2.63, 185.96 1.74, 262.46 -1.53 M0.11 -0.63 C64.28 -1.75, 129.84 -1.65, 260.46 -0.49 M261.49 1.23 C262.93 95.5, 261.68 190.93, 261.19 305.83 M261.85 0.54 C260.12 93.52, 258.87 185.69, 261.08 304.9 M261.61 303.8 C159.44 303.57, 58.51 303.13, 1.44 305.85 M261.01 304.72 C204.98 305.24, 150.48 303.81, -0.72 305.08 M1.32 304.09 C0.34 227.46, 0.24 150.43, 1.29 -1.26 M-0.39 303.78 C-0.62 183.95, -0.65 64.41, -0.35 0.27" stroke="#000000" stroke-width="1" fill="none"></path></g><g transform="translate(490.55078125 237.4453125) rotate(0 66.5 12.5)"><text x="0" y="18" font-family="Virgil, Segoe UI Emoji" font-size="20px" fill="#000000" text-anchor="start" style="white-space: pre;" direction="ltr">Github Action</text></g><g stroke-linecap="round" transform="translate(459.109375 393.44140625) rotate(0 102 47.03125)"><path d="M0.51 0.66 C77.59 1.22, 151.08 0.23, 204.33 -1.7 M0.44 -0.85 C73.24 -1.36, 148.96 -1.41, 203.13 -0.04 M204.77 0.29 C204.39 35.87, 202.96 69.2, 205.54 92.19 M204.07 -0.66 C204.15 32.23, 205.34 61.73, 204.91 94.58 M205.15 93.57 C123.25 92.94, 44.53 95.31, 1.3 94.2 M204.35 94.65 C150.06 95.28, 96.81 95.36, 0.12 93.91 M0.14 96.05 C-0.55 65.47, 0.9 32.42, 1.71 -1.53 M-0.65 94.28 C0.82 68.18, 0.42 40.2, -0.5 0.13" stroke="#000000" stroke-width="1" fill="none"></path></g><g stroke-linecap="round" transform="translate(460.35546875 280.32421875) rotate(0 101.8046875 37.98046875)"><path d="M-0.54 -1.24 C60.52 2.34, 118.57 1.38, 202.44 1.51 M-0.6 -0.63 C60.31 0.87, 120.66 0.08, 203.74 -0.24 M203.66 -0.48 C203.67 20.28, 203.64 36.95, 203.22 76.95 M203.11 -0.8 C203.38 21.87, 204.66 44.08, 204.15 76.93 M203.5 75.98 C130.69 74.06, 57.29 73.73, -0.36 77.64 M202.84 76.47 C128.37 75.24, 53.8 76.59, 0.84 75.95 M1.21 75.16 C-1.11 47.95, -1.33 22.23, -0.7 1 M-0.78 76.23 C-1.42 48.13, -0.52 22.83, -0.54 -0.44" stroke="#000000" stroke-width="1" fill="none"></path></g><g transform="translate(511.84375 311.15625) rotate(0 52 12.5)"><text x="0" y="18" font-family="Virgil, Segoe UI Emoji" font-size="20px" fill="#000000" text-anchor="start" style="white-space: pre;" direction="ltr">WS+VMESS</text></g><g stroke-linecap="round"><g transform="translate(497.55078125 492.32421875) rotate(0 -148.7968260246961 62.63255902578692)"><path d="M-1.16 -0.48 C-5.77 18.22, -2.06 91.29, -26.55 111.27 C-51.04 131.25, -109.58 118.23, -148.11 119.4 C-186.64 120.57, -232.76 136.5, -257.75 118.29 C-282.74 100.08, -291.37 28.24, -298.03 10.13 M0.44 -1.77 C-4.48 16.64, -3.43 89.45, -27.79 109.35 C-52.15 129.24, -107.37 115.96, -145.74 117.61 C-184.11 119.25, -232.93 137.02, -258.01 119.23 C-283.1 101.44, -289.84 29.29, -296.26 10.87" stroke="#000000" stroke-width="1" fill="none"></path></g><g transform="translate(497.55078125 492.32421875) rotate(0 -148.7968260246961 62.63255902578692)"><path d="M4.84 27.82 C3.82 15.48, 2.24 4.01, -1.67 -1.81 M5.92 29.49 C2.94 18.47, 0.75 7.53, -0.17 -0.37" stroke="#000000" stroke-width="1" fill="none"></path></g><g transform="translate(497.55078125 492.32421875) rotate(0 -148.7968260246961 62.63255902578692)"><path d="M-15.53 25.35 C-8.53 14.18, -2.07 3.68, -1.67 -1.81 M-14.45 27.02 C-10.21 16.85, -5.17 6.78, -0.17 -0.37" stroke="#000000" stroke-width="1" fill="none"></path></g><g transform="translate(497.55078125 492.32421875) rotate(0 -148.7968260246961 62.63255902578692)"><path d="M-280.85 35.19 C-285.61 24.33, -290.9 14.42, -296.77 9.54 M-279.77 36.86 C-286.1 27.27, -291.63 17.73, -295.27 10.97" stroke="#000000" stroke-width="1" fill="none"></path></g><g transform="translate(497.55078125 492.32421875) rotate(0 -148.7968260246961 62.63255902578692)"><path d="M-300.87 39.71 C-297.7 27.26, -295.09 15.57, -296.77 9.54 M-299.79 41.37 C-299 30.15, -297.43 19.01, -295.27 10.97" stroke="#000000" stroke-width="1" fill="none"></path></g></g><g transform="translate(281.29296875 542.4609375) rotate(0 78.5 27)"><text x="78.5" y="19" font-family="Virgil, Segoe UI Emoji" font-size="20px" fill="#000000" text-anchor="middle" style="white-space: pre;" direction="ltr">Remote Forward</text><text x="78.5" y="46" font-family="Virgil, Segoe UI Emoji" font-size="20px" fill="#000000" text-anchor="middle" style="white-space: pre;" direction="ltr">远程端口转发</text></g><g transform="translate(85.95703125 347.859375) rotate(0 54.5 12.5)"><text x="54.5" y="18" font-family="Virgil, Segoe UI Emoji" font-size="20px" fill="#000000" text-anchor="middle" style="white-space: pre;" direction="ltr">ssh service</text></g><g stroke-linecap="round" transform="translate(70.70703125 484.28125) rotate(0 10.455078125 13.876953125)"><path d="M9.27 0.88 L19.41 13.97 L11.88 29.2 L1.84 14.18" stroke="none" stroke-width="0" fill="#12b886" fill-rule="evenodd"></path><path d="M12.51 -0.05 C14.23 3.88, 15.67 4.86, 20.86 15.39 M11.23 0.84 C13.36 2.63, 15.57 6.27, 21.05 14.61 M22.54 13.79 C18.14 18.74, 15.77 19.68, 11.59 28.99 M20.97 14.75 C17.69 18.32, 14.4 23.81, 11.44 28.37 M10.79 26.14 C6.74 22.84, 4.3 20.62, 0.46 12.37 M11.58 27.55 C7.5 22.6, 3.47 18.65, -0.84 14.24 M-0.22 13.9 C3.19 9.15, 5.42 6.23, 10.7 0.43 M0.5 13.13 C3.79 8.69, 6.74 5.69, 11.63 -0.53" stroke="#000000" stroke-width="1" fill="none"></path></g><g transform="translate(97.69140625 382.63671875) rotate(0 45 21.5)"><text x="45" y="15.5" font-family="Virgil, Segoe UI Emoji" font-size="16px" fill="#000000" text-anchor="middle" style="white-space: pre;" direction="ltr">Listen Port</text><text x="45" y="37" font-family="Virgil, Segoe UI Emoji" font-size="16px" fill="#000000" text-anchor="middle" style="white-space: pre;" direction="ltr">监听端口</text></g><g transform="translate(556.87109375 452.6875) rotate(0 47 12.5)"><text x="47" y="18" font-family="Virgil, Segoe UI Emoji" font-size="20px" fill="#000000" text-anchor="middle" style="white-space: pre;" direction="ltr">ssh client</text></g><g stroke-linecap="round"><g transform="translate(496.94921875 489.1328125) rotate(0 2.065278421463404 -46.53550695925952)"><path d="M1.18 1.07 C1.47 -14.75, 1.41 -78.32, 1.42 -94.14 M0.34 0.58 C1.06 -15.11, 3.22 -77.14, 3.79 -92.63" stroke="#000000" stroke-width="1" fill="none"></path></g><g transform="translate(496.94921875 489.1328125) rotate(0 2.065278421463404 -46.53550695925952)"><path d="M14.81 -65.21 C10.22 -73.18, 8.23 -81.3, 2.07 -92.62 M13.4 -64.38 C10.77 -69.49, 8.8 -77.03, 3.53 -92.19" stroke="#000000" stroke-width="1" fill="none"></path></g><g transform="translate(496.94921875 489.1328125) rotate(0 2.065278421463404 -46.53550695925952)"><path d="M-5.69 -65.94 C-4.69 -73.91, -1.08 -81.84, 2.07 -92.62 M-7.11 -65.11 C-5.4 -69.94, -3.03 -77.32, 3.53 -92.19" stroke="#000000" stroke-width="1" fill="none"></path></g></g><g stroke-linecap="round"><g transform="translate(501.83203125 393.88671875) rotate(0 0.3524137878713418 -17.66126303225755)"><path d="M1.07 0 C0.91 -5.84, 0.28 -29.67, 0.22 -35.32 M0.17 -1.05 C-0.19 -6.72, -0.42 -28.38, -0.35 -34.18" stroke="#000000" stroke-width="1" fill="none"></path></g><g transform="translate(501.83203125 393.88671875) rotate(0 0.3524137878713418 -17.66126303225755)"><path d="M5.59 -16.92 C2.18 -22.66, 1.89 -31.99, -1.44 -35.24 M6.32 -17.75 C3.08 -23.66, 1.64 -29.52, -1.15 -33.46" stroke="#000000" stroke-width="1" fill="none"></path></g><g transform="translate(501.83203125 393.88671875) rotate(0 0.3524137878713418 -17.66126303225755)"><path d="M-6.24 -16.9 C-4.93 -22.75, -0.5 -32.09, -1.44 -35.24 M-5.5 -17.72 C-4.67 -23.56, -2.03 -29.44, -1.15 -33.46" stroke="#000000" stroke-width="1" fill="none"></path></g></g><g stroke-linecap="round"><g transform="translate(665.6953125 286.45703125) rotate(0 71.92266424782292 -72.36710331698619)"><path d="M0.66 0.18 C17.43 -1.88, 75.99 12.23, 99.54 -12.32 C123.08 -36.87, 134.79 -124.64, 141.94 -147.1 M-0.45 -0.77 C16.22 -3.15, 74.29 10.29, 98.42 -13.89 C122.54 -38.07, 136.96 -123.85, 144.3 -145.86" stroke="#000000" stroke-width="1" fill="none"></path></g><g transform="translate(665.6953125 286.45703125) rotate(0 71.92266424782292 -72.36710331698619)"><path d="M147.57 -116.56 C148.39 -123.99, 145.74 -129.43, 144.15 -145.57 M148.12 -116.03 C146.18 -127.84, 145.27 -138.97, 144.8 -146.61" stroke="#000000" stroke-width="1" fill="none"></path></g><g transform="translate(665.6953125 286.45703125) rotate(0 71.92266424782292 -72.36710331698619)"><path d="M127.68 -121.63 C132.7 -128.11, 134.24 -132.47, 144.15 -145.57 M128.23 -121.11 C134.17 -130.86, 141.11 -139.99, 144.8 -146.61" stroke="#000000" stroke-width="1" fill="none"></path></g></g><g stroke-linecap="round" transform="translate(703.62109375 10) rotate(0 106 55)"><path d="M71.59 2.37 C83.87 -0.88, 99.96 -1.6, 114.35 -0.74 C128.74 0.12, 145.35 3.46, 157.95 7.51 C170.56 11.57, 181.23 17.72, 189.99 23.6 C198.74 29.48, 207.38 35.42, 210.5 42.81 C213.62 50.19, 211.91 60.7, 208.71 67.93 C205.52 75.15, 199.74 80.47, 191.33 86.15 C182.93 91.82, 170.51 97.98, 158.29 101.98 C146.07 105.98, 132.03 109.09, 117.99 110.13 C103.96 111.17, 87.76 110.36, 74.08 108.21 C60.4 106.06, 46.75 102.3, 35.92 97.22 C25.09 92.13, 14.75 84.95, 9.08 77.7 C3.41 70.44, 2 61.24, 1.89 53.68 C1.78 46.12, 2.75 38.69, 8.44 32.36 C14.13 26.03, 19.52 20.89, 36.02 15.69 C52.53 10.49, 89.77 3.19, 107.45 1.13 C125.14 -0.92, 142.01 2.72, 142.14 3.34 M85.82 3.4 C98.57 1.46, 115.36 -0.19, 129.53 1.31 C143.7 2.81, 159.38 7.52, 170.86 12.39 C182.35 17.25, 191.87 24.06, 198.44 30.5 C205.01 36.93, 208.52 44.26, 210.29 51 C212.05 57.73, 213.3 63.54, 209.05 70.9 C204.81 78.27, 195.44 89.16, 184.8 95.18 C174.15 101.19, 158.78 104.53, 145.18 107 C131.57 109.47, 117.64 110.46, 103.16 110.01 C88.68 109.56, 71.19 107.27, 58.3 104.31 C45.42 101.34, 34.6 97.64, 25.85 92.21 C17.1 86.78, 10.07 79.13, 5.81 71.72 C1.54 64.32, -0.95 55.52, 0.28 47.76 C1.52 40, 5.82 31.84, 13.21 25.15 C20.6 18.46, 32.58 11.35, 44.62 7.61 C56.66 3.86, 78.37 3.36, 85.45 2.68 C92.53 2.01, 86.77 3.27, 87.12 3.57" stroke="#000000" stroke-width="1" fill="none"></path></g><g transform="translate(708.62109375 40) rotate(0 101 25)"><text x="101" y="18" font-family="Virgil, Segoe UI Emoji" font-size="20px" fill="#000000" text-anchor="middle" style="white-space: pre;" direction="ltr">Other Services</text><text x="101" y="43" font-family="Virgil, Segoe UI Emoji" font-size="20px" fill="#000000" text-anchor="middle" style="white-space: pre;" direction="ltr">其他公网服务</text></g><g stroke-linecap="round" transform="translate(10 634.94140625) rotate(0 71.86328125 106.052734375)"><path d="M1.44 -3.51 C47.35 1.11, 93.66 -0.74, 146.22 3.77 M-1.76 0.23 C47.28 2.74, 89.66 2.86, 143.72 0.65 M143.7 2.1 C142.05 63.28, 142.17 130.23, 146.75 215.36 M142.44 -1.64 C141.46 64.03, 141.14 124.88, 143.73 213.36 M141.12 213.15 C90.14 210.52, 31.48 217.15, -3.68 215.22 M141.9 212.65 C91.86 211.26, 38.98 212.51, 1.77 212.05 M-2.05 215.05 C2.94 133.32, 0.24 57.97, -2.02 0.04 M1.29 212.77 C-3.1 150.58, -0.97 86.89, -0.06 1.17" stroke="#000000" stroke-width="1" fill="none"></path></g><g transform="translate(55.40234375 764.57421875) rotate(0 23.5 18)"><text x="23.5" y="25" font-family="Virgil, Segoe UI Emoji" font-size="28px" fill="#000000" text-anchor="middle" style="white-space: pre;" direction="ltr">You</text></g><g stroke-linecap="round" transform="translate(32.74609375 634.73828125) rotate(0 48.185546875 41.95703125)"><path d="M-0.28 3.37 C38.06 0.27, 76.37 -3.73, 92.67 3.42 M-1.62 0.31 C20.9 -2.83, 42.29 0.31, 97.93 1.8 M95.12 2.43 C97.25 16.48, 96.43 42.05, 93.26 85.95 M94.86 1.64 C96.13 32.88, 95.58 62.05, 95.34 83.28 M97.47 81.23 C59.09 84.69, 27.42 86.06, -4 85.72 M95.24 83.5 C75.01 86.14, 54.29 85.35, 0.13 83.28 M2 86.29 C-2.77 68.86, 2.31 51.27, -3.01 0.7 M1.31 82.53 C-0.46 66.37, -2.54 49.84, -0.61 -0.14" stroke="#000000" stroke-width="1" fill="none"></path></g><g transform="translate(37.74609375 664.1953125) rotate(0 43 12.5)"><text x="43" y="18" font-family="Virgil, Segoe UI Emoji" font-size="20px" fill="#000000" text-anchor="middle" style="white-space: pre;" direction="ltr">client</text></g><g stroke-linecap="round"><g transform="translate(201.71875 498.54296875) rotate(0 -58.16596634835008 -30.398371658861947)"><path d="M-0.22 0.98 C-3.35 -8.29, -1.96 -47.47, -18.21 -56.37 C-34.46 -65.26, -81.39 -59.06, -97.7 -52.38 C-114.02 -45.7, -113.1 -22.56, -116.11 -16.28 M-1.8 0.44 C-4.58 -9.09, -0.25 -49.43, -15.84 -58.07 C-31.43 -66.7, -78.71 -58.48, -95.33 -51.37 C-111.96 -44.26, -112 -21.06, -115.56 -15.4" stroke="#000000" stroke-width="1" fill="none"></path></g><g transform="translate(201.71875 498.54296875) rotate(0 -58.16596634835008 -30.398371658861947)"><path d="M-8.87 -17.92 C-5.73 -12.33, -4.49 -3.57, -0.93 2.51 M-10.45 -17.24 C-6.25 -10.51, -2.14 -1.9, 0.6 1.14" stroke="#000000" stroke-width="1" fill="none"></path></g><g transform="translate(201.71875 498.54296875) rotate(0 -58.16596634835008 -30.398371658861947)"><path d="M4.98 -20.35 C3.32 -13.95, -0.23 -4.34, -0.93 2.51 M3.39 -19.68 C2.12 -11.88, 0.76 -2.31, 0.6 1.14" stroke="#000000" stroke-width="1" fill="none"></path></g><g transform="translate(201.71875 498.54296875) rotate(0 -58.16596634835008 -30.398371658861947)"><path d="M-114.86 -37.02 C-114.97 -30.51, -116.96 -20.8, -116.27 -13.87 M-116.44 -36.35 C-115.94 -28.47, -115.53 -18.78, -114.74 -15.24" stroke="#000000" stroke-width="1" fill="none"></path></g><g transform="translate(201.71875 498.54296875) rotate(0 -58.16596634835008 -30.398371658861947)"><path d="M-101.45 -32.81 C-106.16 -27.77, -112.79 -19.53, -116.27 -13.87 M-103.03 -32.14 C-107.8 -25.82, -112.68 -17.8, -114.74 -15.24" stroke="#000000" stroke-width="1" fill="none"></path></g></g><g stroke-linecap="round"><g transform="translate(77.92178050492794 632.046875) rotate(0 4.019029723820665 -60.393458446649674)"><path d="M-0.38 -0.9 C0.53 -21.18, 4.88 -102.1, 6.16 -122.03 M1.63 1.24 C2.85 -18.9, 7.56 -100.43, 8.41 -121.07" stroke="#000000" stroke-width="1" fill="none"></path></g><g transform="translate(77.92178050492794 632.046875) rotate(0 4.019029723820665 -60.393458446649674)"><path d="M15.73 -93.86 C12.31 -102.24, 11.74 -111.19, 9.19 -122.84 M16.51 -93.16 C13.76 -102.39, 11.15 -110.25, 7.62 -120.38" stroke="#000000" stroke-width="1" fill="none"></path></g><g transform="translate(77.92178050492794 632.046875) rotate(0 4.019029723820665 -60.393458446649674)"><path d="M-4.77 -94.9 C-0.81 -102.84, 6 -111.42, 9.19 -122.84 M-3.98 -94.2 C-0.05 -103.3, 4.01 -110.81, 7.62 -120.38" stroke="#000000" stroke-width="1" fill="none"></path></g></g></svg>